<svg version="1.1" id="Layer_1" xmlns="http://www.w3.org/2000/svg" x="0" y="0" viewBox="0 0 254.6 74.3" style="enable-background:new 0 0 254.6 74.3" xml:space="preserve"><style>.sellics_st0 {fill: #082a4d}.sellics_st1 {fill: #3bc3fd}</style><path class="sellics_st0" d="M-2146.5 1074.2c-3.4 0-5.8 1.1-5.8 3.8 0 7.6 26.8 3.8 26.7 21.7 0 10.4-9.1 15.9-20.7 15.9-8.2 0-16.2-2.4-22-7.1l.6-1.2c2.1-4.3 7.1-6.3 11.6-4.5 3.2 1.4 6.7 2.1 10.2 2.1 3.7 0 6.4-1.2 6.4-3.9 0-8.1-26.3-3.8-26.3-21.6 0-10.5 9-15.9 20-15.9 7 0 13.9 2 19.8 5.7l-5 9.9c-5.5-3.1-11.2-4.9-15.5-4.9zM-2072.7 1094h-36.4c1.7 6.4 6.6 10.2 13.1 10.2 2.4 0 4.7-.5 6.9-1.4 4.3-1.8 9.2-.7 12.5 2.6l1.1 1.1c-5.1 5.7-12.6 9-21.7 9-16.2 0-26.5-10.4-26.5-25.8 0-15.6 10.7-26 26.1-26 17.9.1 26.2 11.8 24.9 30.3zm-13.5-8.6c-.2-6.7-4.5-11-11.2-11-6.4 0-10.8 4.3-11.9 11h23.1zM-2054.4 1048.5v67h-13.7v-67h13.7zM-2032.4 1041.2v74.3h-13.7v-74.3h13.7zM-2010.2 1060.5v55h-13.7V1070l13.7-9.5zM-1978.3 1076.1c-7.1 0-12.1 5.5-12.1 13.6 0 8.2 5 13.8 12.1 13.8 2.3 0 4.6-.4 6.7-1.4 4.3-2 9.4-1.6 13.3 1l1.8 1.2c-4.2 7-12 11.1-22.1 11.2-14.3.2-26.1-11.1-26.3-25.3-.2-15.8 10.3-26.4 26-26.4 9.7 0 17.4 3.9 22 10.7l-9.8 7.1c-2.7-3.7-7.1-5.7-11.6-5.5zM-1934.5 1074.2c-3.4 0-5.8 1.1-5.8 3.8 0 7.6 26.8 3.8 26.7 21.7 0 10.4-9.1 15.9-20.7 15.9-8.2 0-16.2-2.4-22-7.1l4.7-9.8c5.3 4.1 12.1 6.3 17.6 6.3 3.7 0 6.4-1.2 6.4-3.9 0-8.1-26.3-3.8-26.3-21.6 0-10.5 9-15.9 20-15.9 7 0 13.9 2 19.8 5.7l-1.2 2.5c-2 3.9-6.5 5.7-10.6 4.2-3.2-1.2-6.2-1.8-8.6-1.8z" transform="translate(2168.227 -1041.207)"></path><path class="sellics_st1" d="M-2023.9 1065.5v-9.6c0-4 3.1-7.3 6.9-7.3h6.8v7.4l-13.7 9.5z" transform="translate(2168.227 -1041.207)"></path></svg>